#!OML:ASF E:\Style4\Style4.ASF
:FULLY-SPECIFIED
:DEGREES
3621
root 0.124407 17.4149 -1.66075 4.38143 -2.10845 3.09822
lowerback 11.7002 2.64743 -1.83735
upperback 5.04543 3.28963 -0.211393
thorax -1.37036 1.61666 0.395951
lowerneck -0.236247 -5.00522 -5.66605
upperneck 0.963367 -6.68666 4.31951
head 0.70068 -3.34498 2.26453
rclavicle 3.57812e-015 -4.77083e-015
rhumerus 36.2799 3.44433 -65.1627
rradius 45.3467
rwrist -67.2074
rhand -4.61595 8.92159
rfingers 7.12502
rthumb 21.1624 -19.9434
lclavicle 3.57812e-015 -4.77083e-015
lhumerus 36.1689 -18.9229 58.9061
lradius 56.8316
lwrist 65.0421
lhand 2.32391 30.6191
lfingers 7.12502
lthumb 27.8143 58.5806
rfemur -25.9588 1.25515 14.6183
rtibia 43.8726
rfoot -20.6984 -11.5053
rtoes -13.1543
lfemur -23.6571 0.821135 -22.5288
ltibia 40.9624
lfoot -21.1784 7.42379
ltoes -13.474
3622
root 0.123266 17.4118 -1.65889 4.34799 -2.09959 3.12638
lowerback 11.6981 2.63824 -1.86326
upperback 5.06075 3.27487 -0.21668
thorax -1.35401 1.6089 0.407409
lowerneck -0.306008 -4.99891 -5.60709
upperneck 0.995799 -6.67458 4.23812
head 0.71667 -3.33848 2.22522
rclavicle -3.57812e-015 -3.97569e-015
rhumerus 36.308 3.56498 -65.035
rradius 45.4069
rwrist -67.2653
rhand -4.69117 8.93977
rfingers 7.12502
rthumb 21.0901 -19.9333
lclavicle -3.57812e-015 -3.97569e-015
lhumerus 36.1806 -18.9406 58.8396
lradius 56.8719
lwrist 65.0412
lhand 2.39055 30.7449
lfingers 7.12502
lthumb 27.878 58.6961
rfemur -25.9375 1.2219 14.5957
rtibia 43.9142
rfoot -20.6734 -11.5593
rtoes -13.4922
lfemur -23.6372 0.8112 -22.56
ltibia 41.0078
lfoot -21.1941 7.52179
ltoes -13.9159
3623
root 0.122548 17.4079 -1.6591 4.34499 -2.07569 3.10293
lowerback 11.7005 2.63683 -1.81879
upperback 5.05508 3.27785 -0.209163
thorax -1.35938 1.61094 0.389678
lowerneck -0.339323 -4.99407 -5.55726
upperneck 1.01083 -6.6662 4.17635
head 0.722252 -3.33409 2.19518
rclavicle 4.37326e-015 -2.78299e-015
rhumerus 36.3203 3.56978 -65.0054
rradius 45.4151
rwrist -67.1581
rhand -4.63867 8.98235
rfingers 7.12502
rthumb 21.1406 -19.8851
lclavicle 4.37326e-015 -2.78299e-015
lhumerus 36.1867 -19.0218 58.7864
lradius 56.9496
lwrist 65.0718
lhand 2.40163 30.9074
lfingers 7.12502
lthumb 27.8886 58.8569
rfemur -25.9618 1.20195 14.628
rtibia 43.9539
rfoot -20.6743 -11.5842
rtoes -13.7304
lfemur -23.67 0.795333 -22.532
ltibia 41.07
lfoot -21.19 7.60148
ltoes -14.3416
3624
root 0.12177 17.4058 -1.65926 4.34612 -2.0435 3.04754
lowerback 11.6911 2.62369 -1.75722
upperback 5.04943 3.26776 -0.190272
thorax -1.35778 1.60654 0.376397
lowerneck -0.361816 -4.98326 -5.55203
upperneck 1.03537 -6.6509 4.16101
head 0.732245 -3.32636 2.18859
rclavicle -2.70347e-014 1.19271e-014
rhumerus 36.3241 3.60143 -64.9697
rradius 45.4707
rwrist -67.1241
rhand -4.57477 8.92244
rfingers 7.12502
rthumb 21.2019 -19.9381
lclavicle -2.70347e-014 1.19271e-014
lhumerus 36.1662 -19.0729 58.7254
lradius 57.046
lwrist 65.0453
lhand 2.40623 31.0203
lfingers 7.12502
lthumb 27.893 58.969
rfemur -25.9689 1.19315 14.6874
rtibia 43.9683
rfoot -20.6605 -11.5377
rtoes -13.5097
lfemur -23.713 0.785491 -22.465
ltibia 41.1397
lfoot -21.2697 7.53446
ltoes -13.9193
3625
root 0.121932 17.4054 -1.65808 4.33223 -2.03525 3.04409
lowerback 11.6746 2.62255 -1.74095
upperback 5.04408 3.26851 -0.185211
thorax -1.35388 1.60711 0.373056
lowerneck -0.3024 -4.97593 -5.57499
upperneck 0.980875 -6.64349 4.19766
head 0.706818 -3.32297 2.20712
rclavicle 5.14852e-014 -2.14687e-014
rhumerus 36.3034 3.66366 -64.9045
rradius 45.5587
rwrist -67.1323
rhand -4.57393 8.95415
rfingers 7.12502
rthumb 21.2027 -19.9063
lclavicle 5.14852e-014 -2.14687e-014
lhumerus 36.1538 -19.1458 58.6884
lradius 57.1233
lwrist 65.0022
lhand 2.38928 30.9378
lfingers 7.12502
lthumb 27.8768 58.8892
rfemur -25.9477 1.19267 14.6903
rtibia 43.9829
rfoot -20.7159 -11.5145
rtoes -13.2898
lfemur -23.733 0.791311 -22.4661
ltibia 41.191
lfoot -21.2893 7.603
ltoes -14.3015
